<?xml version="1.0" encoding="utf-8"?>
<!-- Generator: Adobe Illustrator 19.2.0, SVG Export Plug-In . SVG Version: 6.00 Build 0)  -->
<svg version="1.1" id="Layer_1" xmlns="http://www.w3.org/2000/svg" xmlns:xlink="http://www.w3.org/1999/xlink" x="0px" y="0px"
	 viewBox="0 0 960 172" style="enable-background:new 0 0 960 172;" xml:space="preserve">
<style type="text/css">
	.st0{fill:#070606;}
	.st1{fill-rule:evenodd;clip-rule:evenodd;fill:#070606;}
</style>
<g>
	<path class="st0" d="M952,65.8v-6h-41.8v6h17.8v48.5h6.2V65.8H952z M832.8,59.6c-15.8,0-28.4,12.1-28.4,27.4
		c0,15.4,12.5,27.7,28.2,27.7c7.6,0,14.9-3.4,20.3-8.4l-3.8-4.3c-4.3,4.1-10.1,6.5-16.1,6.5c-12.3,0-22.2-9.6-22.2-21.5
		c0-12,9.9-21.5,22.2-21.5c6,0,11.9,2.6,16.1,6.9l3.7-4.8C847.5,62.6,840.3,59.6,832.8,59.6z M742.2,65.8v-6h-37v54.5h38v-5.9h-31.8
		V89.7h27.5v-6h-27.5V65.8H742.2z M236.4,85.9l18.5-26.2h-7.3l-15.2,21l-15-21h-7.3l18.6,26.5l-20,28.1h7.3l16.4-22.8l16.6,22.8h7.5
		L236.4,85.9z M146.4,59.8h-6.2v32.1c0,10.6-6.2,16.8-16.6,16.8c-10.4,0-16.8-6.2-16.8-16.8V59.8h-6.2v32.1c0,14.2,8.6,22.8,23,22.8
		c14.3,0,22.8-8.6,22.8-22.8V59.8z M14.2,108.4V59.8H8v54.5h30.2v-5.9H14.2z"/>
	<rect x="8" y="163.6" class="st1" width="944" height="4.9"/>
	<rect x="8" y="5.5" class="st1" width="944" height="4.9"/>
	<path class="st0" d="M621.6,106V59.8h-9.2v54.5h32.8V106H621.6z M529.6,106V59.8h-9.2v54.5h32.8V106H529.6z M457.8,68v-8.3h-39
		v54.5h39.9v-8.3H428V91h26.7v-8.3H428V68H457.8z M337.8,59.4c-11.8,0-19.9,5.8-19.9,15.2c0,19.4,29.5,12.6,29.5,24.8
		c0,4.2-3.8,6.6-10.2,6.6c-5.8,0-12.9-2.8-18.5-7.9l-4,7.9c5.6,5.1,13.7,8.6,22.3,8.6c12,0,20.6-6,20.6-15.7
		c0.1-19.6-29.4-13.2-29.4-25.2c0-3.7,3.5-5.7,8.9-5.7c4.1,0,10.1,1.5,16,5.1l3.8-8.1C351.8,61.6,344.9,59.4,337.8,59.4z"/>
</g>
</svg>
